<?xml version="1.0" standalone="no"?>
<!DOCTYPE svg PUBLIC "-//W3C//DTD SVG 20010904//EN"
 "http://www.w3.org/TR/2001/REC-SVG-20010904/DTD/svg10.dtd">
<svg version="1.0" xmlns="http://www.w3.org/2000/svg"
 width="230.000000pt" height="231.000000pt" viewBox="0 0 230.000000 231.000000"
 preserveAspectRatio="xMidYMid meet">

<g transform="translate(0.000000,231.000000) scale(0.100000,-0.100000)"
fill="#000000" stroke="none">
<path d="M1035 2179 c-151 -20 -315 -82 -442 -166 -124 -82 -275 -247 -333
-365 -13 -26 -28 -44 -33 -41 -6 3 -7 1 -4 -4 8 -13 -20 -83 -33 -83 -5 0 -6
-7 -3 -17 5 -12 3 -14 -7 -8 -10 6 -12 3 -8 -13 4 -14 2 -20 -5 -15 -6 4 -8 0
-4 -10 3 -10 2 -17 -2 -17 -5 0 -17 -43 -26 -96 -25 -139 -17 -346 19 -467 53
-178 128 -307 259 -444 500 -522 1365 -387 1691 264 73 146 106 288 106 462 0
299 -105 548 -318 753 -94 90 -154 133 -257 185 -72 37 -213 82 -252 82 -15 0
-84 2 -153 5 -69 2 -156 0 -195 -5z m351 -99 c93 -24 205 -71 277 -116 56 -35
73 -57 25 -34 -21 10 -22 10 -5 -4 18 -14 16 -18 -34 -80 -28 -36 -57 -63 -62
-59 -6 3 -7 1 -4 -5 4 -5 -11 -33 -33 -61 l-41 -51 68 -65 c37 -36 71 -65 74
-65 4 0 67 41 140 91 l133 90 18 -23 c77 -100 157 -325 158 -440 l0 -48 -274
0 -273 0 -6 38 c-16 94 -112 219 -205 266 -128 64 -259 58 -384 -18 -31 -19
-60 -31 -64 -27 -4 3 -4 1 -1 -5 4 -7 -1 -18 -10 -25 -30 -25 -81 -115 -98
-172 l-16 -57 -276 0 -275 0 7 58 c17 142 92 346 157 425 l23 28 133 -91 c72
-49 136 -90 140 -90 5 0 16 8 25 18 16 17 14 20 -28 50 -83 59 -108 156 -61
245 22 40 23 47 10 58 -14 11 -13 15 8 31 90 70 265 138 410 158 87 12 256 2
344 -20z m-78 -645 c65 -35 107 -81 140 -153 21 -47 24 -65 20 -136 -5 -96
-29 -148 -99 -210 -62 -56 -121 -80 -204 -80 -268 -2 -409 314 -229 514 22 24
66 56 99 72 54 26 68 29 140 26 65 -3 90 -10 133 -33z m-524 -352 c32 -195
242 -337 445 -303 153 26 288 155 315 303 l7 37 281 0 281 0 -7 -63 c-27 -268
-192 -535 -422 -686 -464 -304 -1091 -147 -1353 341 -64 117 -111 274 -111
369 l0 39 279 0 278 0 7 -37z"/>
<path d="M441 1404 c0 -11 3 -14 6 -6 3 7 2 16 -1 19 -3 4 -6 -2 -5 -13z"/>
</g>
</svg>
